<?xml version="1.0" encoding="UTF-8" standalone="no"?>
<!-- Created with Inkscape (http://www.inkscape.org/) -->

<svg
   width="35.526001mm"
   height="39.90247mm"
   viewBox="0 0 35.526001 39.902468"
   version="1.1"
   id="svg1"
   xml:space="preserve"
   xmlns="http://www.w3.org/2000/svg"
   xmlns:svg="http://www.w3.org/2000/svg"><defs
     id="defs1"><style
       type="text/css"
       id="style1">*{stroke-linejoin: round; stroke-linecap: butt}</style></defs><g
     id="layer1-2"
     transform="translate(-96.095431,-147.24684)"
     style="stroke-linecap:butt;stroke-linejoin:round"><path
       style="baseline-shift:baseline;display:inline;overflow:visible;vector-effect:none;fill:#c77100;fill-opacity:0.986275;stroke:none;stroke-width:0.599563;stroke-linecap:butt;stroke-linejoin:miter;stroke-dasharray:none;stroke-opacity:1;enable-background:accumulate;stop-color:#000000"
       d="m 98.695431,170.08962 6.880629,-0.005 2.0168,-0.14377 1.15228,-0.11166 0.77525,-0.0954 0.59237,-0.084 0.40064,-0.10265 0.36443,-0.12776 0.37984,-0.23694 0.42592,-0.33938 -1.6e-4,15.94453 -12.987999,-7.5e-4 1.32e-4,-2.8183 10.399867,0.0606 v -4.0323 h -4.4 v -2.21903 l 4.4,-0.0583 v -3.17707 l -10.399999,0.0568 z"
       id="path30-9-3-8-6" /></g><rect
     style="opacity:0.99;fill:#c77000;fill-opacity:1;stroke-width:1.39597;stroke-miterlimit:6"
     id="rect5"
     width="12.987999"
     height="19.890476"
     x="2.5999999"
     y="17.650274" /><rect
     style="opacity:0.99;fill:#c77000;fill-opacity:1;stroke-width:1.48479;stroke-linecap:butt;stroke-linejoin:round;stroke-miterlimit:6"
     id="rect5-5"
     width="14.109143"
     height="20.713858"
     x="19.602381"
     y="2.99962" /><rect
     style="opacity:0.99;fill:#6d1477;fill-opacity:1;stroke-width:2.42761;stroke-miterlimit:6"
     id="rect6"
     width="11.136176"
     height="12.698885"
     x="2.6000299"
     y="2.8999901" /><rect
     style="opacity:0.99;fill:#6d1477;fill-opacity:1;stroke-width:1.2;stroke-miterlimit:6"
     id="rect8"
     width="12.276315"
     height="10.900528"
     x="21.433754"
     y="26.639473" /><rect
     style="opacity:0.99;fill:#6d1477;fill-opacity:1;stroke-width:1.30592;stroke-miterlimit:6"
     id="rect9"
     width="10.003215"
     height="5.0917916"
     x="21.76082"
     y="23.82613" /><g
     id="layer1"
     transform="translate(-144.56455,-147.56521)"><path
       style="baseline-shift:baseline;display:inline;overflow:visible;vector-effect:none;fill:#6e1578;fill-opacity:0.986275;stroke:none;stroke-width:0.769613;stroke-linejoin:miter;stroke-dasharray:none;stroke-opacity:1;enable-background:accumulate;stop-color:#000000"
       d="m 159.94055,150.4652 -0.0656,2.18493 -0.13788,4.48197 -0.088,2.89426 -0.087,1.47576 -0.061,0.92375 -0.0811,0.5589 -0.0769,0.38181 -0.15007,0.49846 -0.12673,0.26991 -0.10394,0.15378 -0.16598,0.1697 -0.15643,0.10976 -0.25241,0.12303 -0.35423,0.11772 -0.54671,0.11931 -0.91686,0.12303 -1.46357,0.10924 -2.52837,0.096 -3.29149,-0.0139 -2.1217,-0.009 v -2.69424 l 2.9541,-0.019 2.52837,-0.096 1.46357,-0.10924 0.91685,-0.12302 0.54672,-0.11931 0.35422,-0.11772 0.25242,-0.12303 0.15643,-0.10977 0.16597,-0.16969 0.10394,-0.15378 0.12673,-0.26991 0.15007,-0.49846 0.0769,-0.3818 0.0811,-0.55891 0.061,-0.92375 0.087,-1.47576 0.11245,-4.17618 -6.10712,-0.0886 3e-5,-2.56025 h 6.184"
       id="path30-9" /><path
       style="opacity:0.99;fill:#00ff00;fill-opacity:1;stroke:none;stroke-width:0.2;stroke-linecap:butt;stroke-linejoin:miter;stroke-miterlimit:3;stroke-dasharray:none;stroke-dashoffset:0;stroke-opacity:0.309799"
       d="m 162.64797,182.64193 -0.0252,-2.65094"
       id="path55-6-3" /><path
       style="opacity:0.99;fill:none;fill-opacity:1;stroke:none;stroke-width:0.267253;stroke-linecap:butt;stroke-linejoin:miter;stroke-miterlimit:3;stroke-dasharray:none;stroke-dashoffset:0;stroke-opacity:1"
       d="m 78.80364,125.1257 c 0.257225,-18.05366 0.556581,-23.65179 1.500667,-28.063395 1.209647,-5.652534 3.484983,-6.365716 22.579733,-7.077404 5.25026,-0.195685 12.1313,-0.356539 15.29118,-0.357454 l 5.74524,-0.0017 v 3.358757 3.358758 l -5.21491,5.32e-4 c -7.13777,7.3e-4 -19.252714,0.629608 -23.922306,1.241792 -4.185595,0.54873 -6.628948,1.501704 -7.692591,3.000314 -0.989912,1.39473 -1.707509,4.82752 -1.707509,8.16826 v 3.06996 l 12.551145,-0.19226 12.551141,-0.19226 0.003,2.26294 c 0.002,1.24461 0.1034,3.0982 0.22602,4.11909 l 0.22295,1.85615 H 97.983536 85.02959 v 7.77818 7.77817 l 17.4125,0.004 c 9.57688,0.002 18.00913,0.10251 18.73833,0.22304 l 1.32583,0.21914 v 3.13572 3.13573 l -19.53383,0.003 c -10.743599,0.001 -20.63212,0.10621 -21.974486,0.23296 l -2.440666,0.23045 z"
       id="path57"
       transform="matrix(0.26458333,0,0,0.26458333,144.56455,147.56521)" /><path
       style="opacity:0.99;fill:none;fill-opacity:1;stroke:none;stroke-width:0.267253;stroke-linecap:butt;stroke-linejoin:miter;stroke-miterlimit:3;stroke-dasharray:none;stroke-dashoffset:0;stroke-opacity:1"
       d="m 78.80364,125.1257 c 0.257225,-18.05366 0.556581,-23.65179 1.500667,-28.063395 1.209647,-5.652534 3.484983,-6.365716 22.579733,-7.077404 5.25026,-0.195685 12.1313,-0.356539 15.29118,-0.357454 l 5.74524,-0.0017 v 3.358757 3.358758 l -5.21491,5.32e-4 c -7.13777,7.3e-4 -19.252714,0.629608 -23.922306,1.241792 -4.185595,0.54873 -6.628948,1.501704 -7.692591,3.000314 -0.989912,1.39473 -1.707509,4.82752 -1.707509,8.16826 v 3.06996 l 12.551145,-0.19226 12.551141,-0.19226 0.003,2.26294 c 0.002,1.24461 0.1034,3.0982 0.22602,4.11909 l 0.22295,1.85615 H 97.983536 85.02959 v 7.77818 7.77817 l 17.4125,0.004 c 9.57688,0.002 18.00913,0.10251 18.73833,0.22304 l 1.32583,0.21914 v 3.13572 3.13573 l -19.53383,0.003 c -10.743599,0.001 -20.63212,0.10621 -21.974486,0.23296 l -2.440666,0.23045 z"
       id="path58"
       transform="matrix(0.26458333,0,0,0.26458333,144.56455,147.56521)" /><path
       style="opacity:0.99;fill:none;fill-opacity:1;stroke:none;stroke-width:0.267253;stroke-linecap:butt;stroke-linejoin:miter;stroke-miterlimit:3;stroke-dasharray:none;stroke-dashoffset:0;stroke-opacity:1"
       d="m 78.80364,125.1257 c 0.257225,-18.05366 0.556581,-23.65179 1.500667,-28.063395 1.209647,-5.652534 3.484983,-6.365716 22.579733,-7.077404 5.25026,-0.195685 12.1313,-0.356539 15.29118,-0.357454 l 5.74524,-0.0017 v 3.358757 3.358758 l -5.21491,5.32e-4 c -7.13777,7.3e-4 -19.252714,0.629608 -23.922306,1.241792 -4.185595,0.54873 -6.628948,1.501704 -7.692591,3.000314 -0.989912,1.39473 -1.707509,4.82752 -1.707509,8.16826 v 3.06996 l 12.551145,-0.19226 12.551141,-0.19226 0.003,2.26294 c 0.002,1.24461 0.1034,3.0982 0.22602,4.11909 l 0.22295,1.85615 H 97.983536 85.02959 v 7.77818 7.77817 l 17.4125,0.004 c 9.57688,0.002 18.00913,0.10251 18.73833,0.22304 l 1.32583,0.21914 v 3.13572 3.13573 l -19.53383,0.003 c -10.743599,0.001 -20.63212,0.10621 -21.974486,0.23296 l -2.440666,0.23045 z"
       id="path59"
       transform="matrix(0.26458333,0,0,0.26458333,144.56455,147.56521)" /><path
       style="opacity:0.99;fill:none;fill-opacity:1;stroke:none;stroke-width:0.267253;stroke-linecap:butt;stroke-linejoin:miter;stroke-miterlimit:3;stroke-dasharray:none;stroke-dashoffset:0;stroke-opacity:1"
       d="m 63.697483,137.79743 c -0.128481,-7.14619 -0.23384,-24.64709 -0.234126,-38.890869 -2.9e-4,-14.243782 -0.09307,-25.897786 -0.206186,-25.897786 -0.113115,0 -0.868836,0.537033 -1.679378,1.193409 -1.957038,1.584803 -3.176702,2.174215 -6.29208,3.040693 -6.216568,1.729011 -18.248047,2.471338 -40.171306,2.478519 l -14.93763031,0.0049 v -3.70584 -3.705834 L 11.75565,72.530626 c 15.240668,0.28431 32.851562,-0.462098 39.332815,-1.667054 7.494172,-1.393273 9.003643,-3.914179 9.897914,-16.530113 0.336215,-4.743127 1.763118,-46.5397238 1.767396,-51.7701969 l 0.002,-2.38648541 h 3.657205 3.65721 L 70.326447,40.21166 c 0.140965,22.019185 0.323886,40.102465 0.406487,40.185069 0.0826,0.0826 0.429585,-0.08668 0.771072,-0.37617 3.231227,-2.739268 9.193707,-4.137848 20.773429,-4.872691 5.039207,-0.319785 30.283275,-1.063128 36.504385,-1.074915 l 1.85616,-0.0035 v 3.654805 3.654802 l -14.93763,0.237644 c -30.962463,0.492581 -38.695273,1.551396 -41.059113,5.622015 -2.751975,4.739002 -3.22884,12.579179 -3.731024,61.342111 l -0.02276,2.20971 h -3.478181 -3.47818 z"
       id="path60"
       transform="matrix(0.26458333,0,0,0.26458333,144.56455,147.56521)" /><path
       style="opacity:0.99;fill:none;fill-opacity:1;stroke:none;stroke-width:0.267253;stroke-linecap:butt;stroke-linejoin:miter;stroke-miterlimit:3;stroke-dasharray:none;stroke-dashoffset:0;stroke-opacity:1"
       d="m 63.697483,137.79743 c -0.128481,-7.14619 -0.23384,-24.64709 -0.234126,-38.890869 -2.9e-4,-14.243782 -0.09307,-25.897786 -0.206186,-25.897786 -0.113115,0 -0.868836,0.537033 -1.679378,1.193409 -1.957038,1.584803 -3.176702,2.174215 -6.29208,3.040693 -6.216568,1.729011 -18.248047,2.471338 -40.171306,2.478519 l -14.93763031,0.0049 v -3.70584 -3.705834 L 11.75565,72.530626 c 15.240668,0.28431 32.851562,-0.462098 39.332815,-1.667054 7.494172,-1.393273 9.003643,-3.914179 9.897914,-16.530113 0.336215,-4.743127 1.763118,-46.5397238 1.767396,-51.7701969 l 0.002,-2.38648541 h 3.657205 3.65721 L 70.326447,40.21166 c 0.140965,22.019185 0.323886,40.102465 0.406487,40.185069 0.0826,0.0826 0.429585,-0.08668 0.771072,-0.37617 3.231227,-2.739268 9.193707,-4.137848 20.773429,-4.872691 5.039207,-0.319785 30.283275,-1.063128 36.504385,-1.074915 l 1.85616,-0.0035 v 3.654805 3.654802 l -14.93763,0.237644 c -30.962463,0.492581 -38.695273,1.551396 -41.059113,5.622015 -2.751975,4.739002 -3.22884,12.579179 -3.731024,61.342111 l -0.02276,2.20971 h -3.478181 -3.47818 z"
       id="path61"
       transform="matrix(0.26458333,0,0,0.26458333,144.56455,147.56521)" /><path
       id="path30-9-3-8-1"
       style="baseline-shift:baseline;display:inline;overflow:visible;vector-effect:none;fill:#6e1578;fill-opacity:0.986275;stroke:none;stroke-width:0.536945;stroke-linecap:butt;stroke-linejoin:miter;stroke-dasharray:none;stroke-opacity:1;enable-background:accumulate;stop-color:#000000"
       d="m 173.63546,170.51369 c -2.13618,0.0139 -0.83978,0.006 -2.97453,0.041 l -1.95785,0.0524 -1.21423,0.0622 -0.77443,0.0699 -0.51611,0.0766 -0.37764,0.0896 -0.23973,0.0877 -0.16872,0.093 -0.10515,0.085 -0.11765,0.14292 -0.0789,0.14511 -0.0968,0.26664 -0.10962,0.50585 -0.11847,1.11128 -0.0602,1.14875 0.0116,10.61357 h 2.52255 c 0.0199,-1.9544 0.0197,-1.37848 0.04,-3.33289 l 0.0602,-1.14875 0.11848,-1.11157 0.10932,-0.50555 0.0971,-0.26694 0.0791,-0.14483 0.11764,-0.1429 0.10516,-0.0852 0.1687,-0.0927 0.23975,-0.0878 0.37762,-0.0896 0.51611,-0.0766 0.77444,-0.0699 1.21422,-0.0622 1.42869,-0.0524 c 2.13476,-0.0347 4.57098,-0.31836 4.99844,-0.54917 0.82402,-0.43053 0.69742,-5.57517 0,-6.32727 -0.36617,-0.38071 -4.06909,-0.44525 -4.06909,-0.44525 z m -1.82826,1.71034 c 2.25745,4e-5 3.98191,-0.2471 4.05489,1.32042 -5e-4,0.32557 0.23096,1.36878 -0.48358,1.67931 -0.71454,0.31053 -3.39553,0.79935 -4.52439,0.79937 -4.04392,-0.0203 -3.64203,-0.53717 -3.66411,-2.23164 2.7e-4,-1.08805 2.35964,-1.56748 4.61719,-1.56746 z" /><path
       id="path30-9-3-8"
       style="baseline-shift:baseline;display:inline;overflow:visible;vector-effect:none;fill:#000000;fill-opacity:0.986275;stroke:none;stroke-width:2.87279;stroke-linecap:butt;stroke-linejoin:miter;stroke-dasharray:none;stroke-opacity:1;enable-background:accumulate;stop-color:#000000"
       d="m 157.76116,147.56521 -0.21497,3.64681 -0.2279,3.44836 -0.30282,2.08618 -0.2868,1.42524 -0.56018,1.86035 -0.47284,1.00769 -0.38809,0.57412 -0.6196,0.63356 -0.58394,0.40979 -0.94206,0.45889 -1.3224,0.43977 -2.0407,0.44493 -3.42253,0.4594 -1.81178,0.1354 v 5.76037 l 2.40812,-0.17932 3.82251,-0.51056 2.56935,-0.56431 1.97352,-0.65319 1.69241,-0.82734 1.38958,-0.9741 0.85679,-0.87282 0.12351,21.69325 h 6.59701 l 0.0103,-0.19637 0.63355,-5.9464 0.58601,-2.70578 0.51883,-1.4273 0.42323,-0.77567 0.62942,-0.76429 0.56224,-0.45527 0.90279,-0.49661 1.28261,-0.46922 2.02106,-0.47904 2.76107,-0.4098 3.76205,-0.33951 v -5.76864 l -0.0264,0.002 -4.41782,0.39997 -3.16724,0.46922 -2.58899,0.6134 -2.01332,0.73639 -1.73168,0.9524 -1.09295,0.88263 -0.13539,-23.72413 z" /></g></svg>
