<?xml version="1.0" encoding="UTF-8" standalone="no"?>
<!-- Created with Inkscape (http://www.inkscape.org/) -->

<svg
   width="87.913391mm"
   height="40.200157mm"
   viewBox="0 0 87.913391 40.200156"
   version="1.1"
   id="svg1"
   xml:space="preserve"
   xmlns="http://www.w3.org/2000/svg"
   xmlns:svg="http://www.w3.org/2000/svg"><defs
     id="defs1"><style
       type="text/css"
       id="style1">*{stroke-linejoin: round; stroke-linecap: butt}</style></defs><g
     id="layer1"
     transform="translate(-144.56455,-147.56521)"><path
       style="baseline-shift:baseline;display:inline;overflow:visible;vector-effect:none;fill:#000000;fill-opacity:0.986275;stroke:none;stroke-width:1;stroke-linecap:butt;stroke-linejoin:miter;stroke-dasharray:none;stroke-opacity:1;enable-background:accumulate;stop-color:#000000"
       d="m 161.15514,147.56521 -0.26458,8.59758 -0.11438,3.76066 -0.113,1.91754 -0.0792,1.20028 -0.10543,0.72622 -0.0999,0.49609 -0.19499,0.64768 -0.16468,0.35071 -0.13505,0.19982 -0.21566,0.22049 -0.20326,0.14262 -0.32798,0.15985 -0.46026,0.15297 -0.71038,0.15503 -1.19131,0.15985 -1.90169,0.14194 -3.28525,0.12471 -7.01559,-0.0296 -0.008,2.00022 7.05763,0.0289 3.36379,-0.12747 1.99678,-0.14882 1.33049,-0.17777 0.89435,-0.19637 0.68695,-0.22738 0.58911,-0.28801 0.48369,-0.339 0.29835,-0.30385 0.11713,20.5369 v 0.0165 l 1.99954,0.004 v -0.0158 h 8.3e-4 v -0.0324 l 0.113,-10.88719 0.11231,-2.1394 0.22049,-2.06982 0.20395,-0.94189 0.18052,-0.49678 0.14745,-0.27009 0.21911,-0.26597 0.19568,-0.15847 0.31419,-0.17294 0.44649,-0.1633 0.70349,-0.16674 0.96118,-0.14263 1.44211,-0.13021 2.26136,-0.11577 3.64629,-0.0978 c 3.97573,-0.0646 53.94873,0.27855 57.92713,0.25265 v -1.99953 c -3.97067,0.0259 -53.98694,-0.31725 -57.95952,-0.25265 h -0.006 l -3.68625,0.0985 -2.32475,0.1192 -1.53789,0.13918 -1.10243,0.16329 -0.90124,0.2136 -0.70074,0.25632 -0.60289,0.33141 -0.38033,0.30731 -0.12127,-21.23901 z"
       id="path30-9-3-8" /><path
       style="baseline-shift:baseline;display:inline;overflow:visible;vector-effect:none;fill:#000000;fill-opacity:0.986275;stroke:none;stroke-width:0.769613;stroke-linejoin:miter;stroke-dasharray:none;stroke-opacity:1;enable-background:accumulate;stop-color:#000000"
       d="m 157.90838,150.5103 2.03224,0.005 -0.0657,2.13484 -0.13788,4.48197 -0.088,2.89426 -0.087,1.47576 -0.061,0.92375 -0.0811,0.5589 -0.0769,0.38181 -0.15007,0.49846 -0.12673,0.26991 -0.10394,0.15378 -0.16598,0.1697 -0.15643,0.10976 -0.25241,0.12303 -0.35423,0.11772 -0.54671,0.11931 -0.91686,0.12303 -1.46357,0.10924 -2.52837,0.096 -3.29149,-0.0139 -2.1078,-0.009 -0.006,-2.16507 3.47537,-0.019 2.52837,-0.096 1.46357,-0.10924 0.91685,-0.12302 0.54672,-0.11931 0.35422,-0.11772 0.25242,-0.12303 0.15643,-0.10977 0.16597,-0.16969 0.10394,-0.15378 0.12673,-0.26991 0.15007,-0.49846 0.0769,-0.3818 0.0811,-0.55891 0.061,-0.92375 0.087,-1.47576 0.11245,-5.23452 -6.10712,-0.0886 3e-5,-1.97759 6.184,-0.009"
       id="path30-9" /><path
       style="opacity:0.99;fill:#00ff00;fill-opacity:1;stroke:none;stroke-width:0.2;stroke-linecap:butt;stroke-linejoin:miter;stroke-miterlimit:3;stroke-dasharray:none;stroke-dashoffset:0;stroke-opacity:0.309799"
       d="m 162.64797,182.64193 -0.0252,-2.65094"
       id="path55-6-3" /><path
       style="opacity:0.99;fill:none;fill-opacity:1;stroke:none;stroke-width:0.267253;stroke-linecap:butt;stroke-linejoin:miter;stroke-miterlimit:3;stroke-dasharray:none;stroke-dashoffset:0;stroke-opacity:1"
       d="m 78.80364,125.1257 c 0.257225,-18.05366 0.556581,-23.65179 1.500667,-28.063395 1.209647,-5.652534 3.484983,-6.365716 22.579733,-7.077404 5.25026,-0.195685 12.1313,-0.356539 15.29118,-0.357454 l 5.74524,-0.0017 v 3.358757 3.358758 l -5.21491,5.32e-4 c -7.13777,7.3e-4 -19.252714,0.629608 -23.922306,1.241792 -4.185595,0.54873 -6.628948,1.501704 -7.692591,3.000314 -0.989912,1.39473 -1.707509,4.82752 -1.707509,8.16826 v 3.06996 l 12.551145,-0.19226 12.551141,-0.19226 0.003,2.26294 c 0.002,1.24461 0.1034,3.0982 0.22602,4.11909 l 0.22295,1.85615 H 97.983536 85.02959 v 7.77818 7.77817 l 17.4125,0.004 c 9.57688,0.002 18.00913,0.10251 18.73833,0.22304 l 1.32583,0.21914 v 3.13572 3.13573 l -19.53383,0.003 c -10.743599,0.001 -20.63212,0.10621 -21.974486,0.23296 l -2.440666,0.23045 z"
       id="path57"
       transform="matrix(0.26458333,0,0,0.26458333,144.56455,147.56521)" /><path
       style="opacity:0.99;fill:none;fill-opacity:1;stroke:none;stroke-width:0.267253;stroke-linecap:butt;stroke-linejoin:miter;stroke-miterlimit:3;stroke-dasharray:none;stroke-dashoffset:0;stroke-opacity:1"
       d="m 78.80364,125.1257 c 0.257225,-18.05366 0.556581,-23.65179 1.500667,-28.063395 1.209647,-5.652534 3.484983,-6.365716 22.579733,-7.077404 5.25026,-0.195685 12.1313,-0.356539 15.29118,-0.357454 l 5.74524,-0.0017 v 3.358757 3.358758 l -5.21491,5.32e-4 c -7.13777,7.3e-4 -19.252714,0.629608 -23.922306,1.241792 -4.185595,0.54873 -6.628948,1.501704 -7.692591,3.000314 -0.989912,1.39473 -1.707509,4.82752 -1.707509,8.16826 v 3.06996 l 12.551145,-0.19226 12.551141,-0.19226 0.003,2.26294 c 0.002,1.24461 0.1034,3.0982 0.22602,4.11909 l 0.22295,1.85615 H 97.983536 85.02959 v 7.77818 7.77817 l 17.4125,0.004 c 9.57688,0.002 18.00913,0.10251 18.73833,0.22304 l 1.32583,0.21914 v 3.13572 3.13573 l -19.53383,0.003 c -10.743599,0.001 -20.63212,0.10621 -21.974486,0.23296 l -2.440666,0.23045 z"
       id="path58"
       transform="matrix(0.26458333,0,0,0.26458333,144.56455,147.56521)" /><path
       style="opacity:0.99;fill:none;fill-opacity:1;stroke:none;stroke-width:0.267253;stroke-linecap:butt;stroke-linejoin:miter;stroke-miterlimit:3;stroke-dasharray:none;stroke-dashoffset:0;stroke-opacity:1"
       d="m 78.80364,125.1257 c 0.257225,-18.05366 0.556581,-23.65179 1.500667,-28.063395 1.209647,-5.652534 3.484983,-6.365716 22.579733,-7.077404 5.25026,-0.195685 12.1313,-0.356539 15.29118,-0.357454 l 5.74524,-0.0017 v 3.358757 3.358758 l -5.21491,5.32e-4 c -7.13777,7.3e-4 -19.252714,0.629608 -23.922306,1.241792 -4.185595,0.54873 -6.628948,1.501704 -7.692591,3.000314 -0.989912,1.39473 -1.707509,4.82752 -1.707509,8.16826 v 3.06996 l 12.551145,-0.19226 12.551141,-0.19226 0.003,2.26294 c 0.002,1.24461 0.1034,3.0982 0.22602,4.11909 l 0.22295,1.85615 H 97.983536 85.02959 v 7.77818 7.77817 l 17.4125,0.004 c 9.57688,0.002 18.00913,0.10251 18.73833,0.22304 l 1.32583,0.21914 v 3.13572 3.13573 l -19.53383,0.003 c -10.743599,0.001 -20.63212,0.10621 -21.974486,0.23296 l -2.440666,0.23045 z"
       id="path59"
       transform="matrix(0.26458333,0,0,0.26458333,144.56455,147.56521)" /><path
       style="opacity:0.99;fill:none;fill-opacity:1;stroke:none;stroke-width:0.267253;stroke-linecap:butt;stroke-linejoin:miter;stroke-miterlimit:3;stroke-dasharray:none;stroke-dashoffset:0;stroke-opacity:1"
       d="m 63.697483,137.79743 c -0.128481,-7.14619 -0.23384,-24.64709 -0.234126,-38.890869 -2.9e-4,-14.243782 -0.09307,-25.897786 -0.206186,-25.897786 -0.113115,0 -0.868836,0.537033 -1.679378,1.193409 -1.957038,1.584803 -3.176702,2.174215 -6.29208,3.040693 -6.216568,1.729011 -18.248047,2.471338 -40.171306,2.478519 l -14.93763031,0.0049 v -3.70584 -3.705834 L 11.75565,72.530626 c 15.240668,0.28431 32.851562,-0.462098 39.332815,-1.667054 7.494172,-1.393273 9.003643,-3.914179 9.897914,-16.530113 0.336215,-4.743127 1.763118,-46.5397238 1.767396,-51.7701969 l 0.002,-2.38648541 h 3.657205 3.65721 L 70.326447,40.21166 c 0.140965,22.019185 0.323886,40.102465 0.406487,40.185069 0.0826,0.0826 0.429585,-0.08668 0.771072,-0.37617 3.231227,-2.739268 9.193707,-4.137848 20.773429,-4.872691 5.039207,-0.319785 30.283275,-1.063128 36.504385,-1.074915 l 1.85616,-0.0035 v 3.654805 3.654802 l -14.93763,0.237644 c -30.962463,0.492581 -38.695273,1.551396 -41.059113,5.622015 -2.751975,4.739002 -3.22884,12.579179 -3.731024,61.342111 l -0.02276,2.20971 h -3.478181 -3.47818 z"
       id="path60"
       transform="matrix(0.26458333,0,0,0.26458333,144.56455,147.56521)" /><path
       style="opacity:0.99;fill:none;fill-opacity:1;stroke:none;stroke-width:0.267253;stroke-linecap:butt;stroke-linejoin:miter;stroke-miterlimit:3;stroke-dasharray:none;stroke-dashoffset:0;stroke-opacity:1"
       d="m 63.697483,137.79743 c -0.128481,-7.14619 -0.23384,-24.64709 -0.234126,-38.890869 -2.9e-4,-14.243782 -0.09307,-25.897786 -0.206186,-25.897786 -0.113115,0 -0.868836,0.537033 -1.679378,1.193409 -1.957038,1.584803 -3.176702,2.174215 -6.29208,3.040693 -6.216568,1.729011 -18.248047,2.471338 -40.171306,2.478519 l -14.93763031,0.0049 v -3.70584 -3.705834 L 11.75565,72.530626 c 15.240668,0.28431 32.851562,-0.462098 39.332815,-1.667054 7.494172,-1.393273 9.003643,-3.914179 9.897914,-16.530113 0.336215,-4.743127 1.763118,-46.5397238 1.767396,-51.7701969 l 0.002,-2.38648541 h 3.657205 3.65721 L 70.326447,40.21166 c 0.140965,22.019185 0.323886,40.102465 0.406487,40.185069 0.0826,0.0826 0.429585,-0.08668 0.771072,-0.37617 3.231227,-2.739268 9.193707,-4.137848 20.773429,-4.872691 5.039207,-0.319785 30.283275,-1.063128 36.504385,-1.074915 l 1.85616,-0.0035 v 3.654805 3.654802 l -14.93763,0.237644 c -30.962463,0.492581 -38.695273,1.551396 -41.059113,5.622015 -2.751975,4.739002 -3.22884,12.579179 -3.731024,61.342111 l -0.02276,2.20971 h -3.478181 -3.47818 z"
       id="path61"
       transform="matrix(0.26458333,0,0,0.26458333,144.56455,147.56521)" /><g
       id="g3"
       transform="translate(-4.12722,-0.845)"
       style="fill:#000000;fill-opacity:0.986275;stroke:#ff8800;stroke-width:1.8;stroke-dasharray:none;stroke-opacity:1"><g
         id="g2"
         style="fill:#000000;fill-opacity:0.986275;stroke:#ff8800;stroke-width:1.8;stroke-dasharray:none;stroke-opacity:1" /><path
         id="path2"
         style="baseline-shift:baseline;display:inline;overflow:visible;opacity:0.99;vector-effect:none;fill:#000000;fill-opacity:0.986275;stroke:none;stroke-linejoin:miter;stroke-miterlimit:6;enable-background:accumulate;stop-color:#000000;stop-opacity:1"
         d="m 169.72941,151.3898 -1.36887,0.049 0.0276,16.77258 c 0,0 0.86697,-0.69391 2.21976,-0.78176 l -0.0496,-4.89847 c 2.02212,-0.753 3.56149,-1.79454 4.78369,-2.90163 0.85286,1.24272 1.73395,2.45499 2.65669,3.44217 1.13752,1.21697 2.3719,2.17307 3.84007,2.16782 l -0.006,-1.64072 c -0.68857,0.002 -1.62548,-0.56903 -2.63446,-1.64848 -0.87519,-0.93631 -1.78078,-2.19288 -2.67633,-3.5047 0.5189,-0.57283 0.97104,-1.14241 1.3777,-1.67897 0.77801,-1.02652 1.41026,-1.93076 1.99419,-2.51354 0.58394,-0.58277 1.03026,-0.83352 1.67948,-0.83405 l -0.002,-1.80041 c -1.19798,9.7e-4 -2.18164,0.59516 -2.94918,1.36116 -0.76754,0.76601 -1.40818,1.71245 -2.15594,2.69906 -0.30765,0.40592 -0.6304,0.81889 -0.98082,1.22938 -0.81195,-1.20733 -1.61327,-2.37966 -2.41225,-3.33675 -1.0039,-1.20255 -2.00072,-2.20415 -3.34347,-2.18178 z m 0.83406,2.26395 c 0.3967,0.24878 0.69991,0.30942 1.25005,0.96841 0.78112,0.9357 1.63076,2.19412 2.5151,3.50935 -0.98046,0.92623 -2.18266,1.78751 -3.76928,2.46238 z" /></g><g
       id="g30"
       style="fill:#000000;fill-opacity:0.986275"><g
         id="g31"
         style="fill:#000000;fill-opacity:0.986275"><path
           style="baseline-shift:baseline;display:inline;overflow:visible;vector-effect:none;fill:#000000;fill-opacity:0.986275;stroke:none;stroke-width:0.793489;stroke-linecap:butt;stroke-linejoin:miter;stroke-dasharray:none;stroke-opacity:1;enable-background:accumulate;stop-color:#000000"
           d="m 176.59084,172.36446 c -2.64947,0.0154 -5.69055,-4.6e-4 -8.31826,0.41725 l -0.53826,0.13721 -0.34163,0.13438 -0.24039,0.1423 -0.14972,0.13042 -0.16765,0.21885 -0.11282,0.22227 -0.13812,0.4088 -0.15605,0.77508 -0.0272,1.70325 6.67013,-0.0796 0.0281,2.37716 -6.76641,0.0526 0.0127,4.30841 9.92739,0.0681 -0.025,1.96384 c -3.88262,-0.0489 -7.83956,-0.0618 -11.72183,0.0605 0,0 0.0581,-6.00347 0.0871,-8.9987 l 0.0859,-1.76051 0.1687,-1.70326 0.15605,-0.77508 0.13812,-0.4088 0.11282,-0.22225 0.16765,-0.21888 0.14972,-0.13039 0.2404,-0.14232 0.34162,-0.13437 0.53826,-0.13722 0.73543,-0.11737 1.10341,-0.10712 4.52013,-0.17574 3.52162,-0.0374 z"
           id="path30-9-3-6" /><path
           style="font-weight:bold;font-size:12.7px;line-height:1%;font-family:'Noto Looped Lao';-inkscape-font-specification:'Noto Looped Lao Bold';text-align:justify;letter-spacing:-1.32292px;opacity:0.99;fill:#000000;fill-opacity:0.986275;stroke-width:1.2;stroke-miterlimit:6"
           d="m 174.58573,178.17836 h 2.22002 l 1.73013,4.79971 1.72392,-4.79971 h 2.22622 l -2.73471,6.94531 h -2.43706 z m 14.76292,3.45405 v 0.63252 h -5.19038 q 0.0806,0.78135 0.56431,1.17202 0.48369,0.39068 1.35185,0.39068 0.70073,0 1.43247,-0.20464 0.73794,-0.21084 1.51309,-0.63252 v 1.71152 q -0.78755,0.29766 -1.5751,0.44649 -0.78755,0.15503 -1.5751,0.15503 -1.88515,0 -2.93315,-0.95498 -1.0418,-0.96119 -1.0418,-2.69131 0,-1.69912 1.02319,-2.67271 1.0294,-0.97358 2.82774,-0.97358 1.63711,0 2.61689,0.98598 0.98599,0.98599 0.98599,2.6355 z m -2.28203,-0.73794 q 0,-0.63252 -0.37207,-1.01699 -0.36587,-0.39067 -0.96118,-0.39067 -0.64493,0 -1.048,0.36587 -0.40308,0.35966 -0.5023,1.04179 z m 9.62215,0 v 4.2292 h -2.23243 v -0.68833 -2.54868 q 0,-0.89917 -0.0434,-1.24023 -0.0372,-0.34107 -0.13643,-0.5023 -0.13022,-0.21704 -0.35347,-0.33486 -0.22324,-0.12403 -0.50849,-0.12403 -0.69453,0 -1.09141,0.53951 -0.39687,0.5333 -0.39687,1.48208 v 3.41684 h -2.22002 v -6.94531 h 2.22002 v 1.01699 q 0.50229,-0.60771 1.0666,-0.89297 0.5643,-0.29145 1.24643,-0.29145 1.20303,0 1.82315,0.73794 0.62632,0.73794 0.62632,2.1456 z m 3.16052,-4.68808 v 1.97197 h 2.28824 v 1.5875 h -2.28824 v 2.94556 q 0,0.48369 0.19224,0.65732 0.19224,0.16743 0.76274,0.16743 h 1.14102 v 1.5875 h -1.90376 q -1.31465,0 -1.86655,-0.5457 -0.54571,-0.5519 -0.54571,-1.86655 v -2.94556 h -1.1038 v -1.5875 h 1.1038 v -1.97197 z m 1.61237,6.30108 v -1.5748 h 3.3401 v 1.5748 z m 5.6721,1.61161 v 3.64629 h -2.22002 v -9.58701 h 2.22002 v 1.01699 q 0.45889,-0.60771 1.01699,-0.89297 0.55811,-0.29145 1.28364,-0.29145 1.28365,0 2.1084,1.02319 0.82476,1.01699 0.82476,2.6231 0,1.6061 -0.82476,2.62929 -0.82475,1.017 -2.1084,1.017 -0.72553,0 -1.28364,-0.28526 -0.5581,-0.29145 -1.01699,-0.89917 z m 1.47588,-4.49585 q -0.71314,0 -1.09761,0.5271 -0.37827,0.5209 -0.37827,1.50689 0,0.98598 0.37827,1.51308 0.38447,0.5209 1.09761,0.5209 0.71313,0 1.0852,-0.5209 0.37827,-0.5209 0.37827,-1.51308 0,-0.99219 -0.37827,-1.51309 -0.37207,-0.5209 -1.0852,-0.5209 z m 9.23147,0.44649 q -0.29145,-0.13643 -0.58291,-0.19844 -0.28525,-0.0682 -0.57671,-0.0682 -0.85576,0 -1.32085,0.5519 -0.45888,0.5457 -0.45888,1.5689 v 3.1998 h -2.22002 v -6.94531 h 2.22002 v 1.14102 q 0.42788,-0.68213 0.97978,-0.99219 0.55811,-0.31626 1.33325,-0.31626 0.11162,0 0.24185,0.0124 0.13022,0.006 0.37827,0.0372 z m 3.08611,-0.47129 q -0.73794,0 -1.12861,0.5333 -0.38447,0.5271 -0.38447,1.52549 0,0.99839 0.38447,1.53169 0.39067,0.5271 1.12861,0.5271 0.72554,0 1.11001,-0.5271 0.38448,-0.5333 0.38448,-1.53169 0,-0.99839 -0.38448,-1.52549 -0.38447,-0.5333 -1.11001,-0.5333 z m 0,-1.5875 q 1.79214,0 2.79673,0.96738 1.01079,0.96738 1.01079,2.67891 0,1.71152 -1.01079,2.6789 -1.00459,0.96739 -2.79673,0.96739 -1.79834,0 -2.81533,-0.96739 -1.01079,-0.96738 -1.01079,-2.6789 0,-1.71153 1.01079,-2.67891 1.01699,-0.96738 2.81533,-0.96738 z m 6.31693,6.10815 v 3.64629 h -2.22002 v -9.58701 h 2.22002 v 1.01699 q 0.45888,-0.60771 1.01699,-0.89297 0.55811,-0.29145 1.28364,-0.29145 1.28365,0 2.1084,1.02319 0.82476,1.01699 0.82476,2.6231 0,1.6061 -0.82476,2.62929 -0.82475,1.017 -2.1084,1.017 -0.72553,0 -1.28364,-0.28526 -0.55811,-0.29145 -1.01699,-0.89917 z m 1.47588,-4.49585 q -0.71314,0 -1.09761,0.5271 -0.37827,0.5209 -0.37827,1.50689 0,0.98598 0.37827,1.51308 0.38447,0.5209 1.09761,0.5209 0.71313,0 1.0852,-0.5209 0.37827,-0.5209 0.37827,-1.51308 0,-0.99219 -0.37827,-1.51309 -0.37207,-0.5209 -1.0852,-0.5209 z"
           id="text30"
           aria-label="vent-prop" /></g></g></g></svg>
