<?xml version="1.0" encoding="UTF-8" standalone="no"?>
<!-- Created with Inkscape (http://www.inkscape.org/) -->

<svg
   width="34.588909mm"
   height="39.902287mm"
   viewBox="0 0 34.588909 39.902286"
   version="1.1"
   id="svg1"
   xml:space="preserve"
   xmlns="http://www.w3.org/2000/svg"
   xmlns:svg="http://www.w3.org/2000/svg"><defs
     id="defs1"><style
       type="text/css"
       id="style1">*{stroke-linejoin: round; stroke-linecap: butt}</style></defs><g
     id="layer1"
     transform="translate(-144.56455,-147.56521)"><path
       style="baseline-shift:baseline;display:inline;overflow:visible;vector-effect:none;fill:#691797;fill-opacity:1;stroke:none;stroke-width:1;stroke-linecap:butt;stroke-linejoin:miter;stroke-dasharray:none;stroke-opacity:1;enable-background:accumulate;stop-color:#000000"
       d="m 161.15514,147.56521 -0.26458,8.59758 -0.11438,3.76066 -0.113,1.91754 -0.0792,1.20028 -0.10543,0.72622 -0.0999,0.49609 -0.19499,0.64768 -0.16468,0.35071 -0.13505,0.19982 -0.21566,0.22049 -0.20326,0.14262 -0.32798,0.15985 -0.46026,0.15297 -0.71038,0.15503 -1.19131,0.15985 -1.90169,0.14194 -3.28525,0.12471 -7.01559,-0.0296 -0.008,2.00022 7.05763,0.0289 3.36379,-0.12747 1.99678,-0.14882 1.33049,-0.17777 0.89435,-0.19637 0.68695,-0.22738 0.58911,-0.28801 0.48369,-0.339 0.29835,-0.30385 0.11713,20.5369 v 0.0165 l 1.99954,0.004 v -0.0158 h 8.3e-4 v -0.0324 l 0.113,-10.88719 0.11231,-2.1394 0.22049,-2.06982 0.20395,-0.94189 0.18052,-0.49678 0.14745,-0.27009 0.21911,-0.26597 0.19568,-0.15847 0.31419,-0.17294 0.44649,-0.1633 0.70349,-0.16674 0.96118,-0.14263 1.44211,-0.13021 2.26136,-0.11577 3.64629,-0.0978 c 3.97573,-0.0646 0.62425,-0.0196 4.60265,-0.0455 l -0.0131,-1.99953 c -3.97067,0.0259 -0.64936,-0.0191 -4.62194,0.0455 h -0.006 l -3.68625,0.0985 -2.32475,0.1192 -1.53789,0.13918 -1.10243,0.16329 -0.90124,0.2136 -0.70074,0.25632 -0.60289,0.33141 -0.38033,0.30731 -0.12127,-21.23901 z"
       id="path30-9-3-8" /><path
       style="baseline-shift:baseline;display:inline;overflow:visible;vector-effect:none;fill:#ff8800;fill-opacity:1;stroke:none;stroke-width:0.769613;stroke-linejoin:miter;stroke-dasharray:none;stroke-opacity:1;enable-background:accumulate;stop-color:#000000"
       d="m 157.2127,150.16246 2.03224,0.005 -0.0657,2.13484 -0.13788,4.48197 -0.088,2.89426 -0.087,1.47576 -0.061,0.92375 -0.0811,0.5589 -0.0769,0.38181 -0.15007,0.49846 -0.12673,0.26991 -0.10394,0.15378 -0.16598,0.1697 -0.15643,0.10976 -0.25241,0.12303 -0.35423,0.11772 -0.54671,0.11931 -0.91686,0.12303 -1.46357,0.10924 -2.52837,0.096 -3.29149,-0.0139 -2.1078,-0.009 -0.006,-2.16507 3.47537,-0.019 2.52837,-0.096 1.46357,-0.10924 0.91685,-0.12302 0.54672,-0.11931 0.35422,-0.11772 0.25242,-0.12303 0.15643,-0.10977 0.16597,-0.16969 0.10394,-0.15378 0.12673,-0.26991 0.15007,-0.49846 0.0769,-0.3818 0.0811,-0.55891 0.061,-0.92375 0.087,-1.47576 0.11245,-5.23452 -6.10712,-0.0886 3e-5,-1.97759 6.184,-0.009"
       id="path30-9" /><path
       style="baseline-shift:baseline;display:inline;overflow:visible;vector-effect:none;fill:#ff8800;fill-opacity:1;stroke:none;stroke-width:0.765131;stroke-linecap:butt;stroke-linejoin:miter;stroke-dasharray:none;stroke-opacity:1;enable-background:accumulate;stop-color:#000000"
       d="m 177.38992,173.10952 c -2.64947,0.0143 -5.69055,-4.3e-4 -8.31826,0.38795 l -0.53826,0.12758 -0.34163,0.12495 -0.24039,0.13231 -0.14972,0.12126 -0.16765,0.20349 -0.11282,0.20667 -0.13812,0.3801 -0.15605,0.72067 -0.0272,1.58368 6.67013,-0.074 0.0281,2.21028 -6.76641,0.0489 0.0127,4.00596 9.92739,0.0633 -0.025,1.82598 c -3.88262,-0.0455 -7.83956,-0.0575 -11.72183,0.0562 0,0 0.0581,-5.58202 0.0871,-8.36699 l 0.0859,-1.63692 0.1687,-1.58369 0.15605,-0.72067 0.13812,-0.3801 0.11282,-0.20665 0.16765,-0.20351 0.14972,-0.12124 0.2404,-0.13233 0.34162,-0.12494 0.53826,-0.12758 0.73543,-0.10913 1.10341,-0.0996 4.52013,-0.16341 3.52162,-0.0348 z"
       id="path30-9-3-6" /><path
       style="opacity:0.99;fill:#00ff00;fill-opacity:1;stroke:none;stroke-width:0.2;stroke-linecap:butt;stroke-linejoin:miter;stroke-miterlimit:3;stroke-dasharray:none;stroke-dashoffset:0;stroke-opacity:0.309799"
       d="m 162.64797,182.64193 -0.0252,-2.65094"
       id="path55-6-3" /><path
       style="opacity:0.99;fill:none;fill-opacity:1;stroke:none;stroke-width:0.267253;stroke-linecap:butt;stroke-linejoin:miter;stroke-miterlimit:3;stroke-dasharray:none;stroke-dashoffset:0;stroke-opacity:1"
       d="m 78.80364,125.1257 c 0.257225,-18.05366 0.556581,-23.65179 1.500667,-28.063395 1.209647,-5.652534 3.484983,-6.365716 22.579733,-7.077404 5.25026,-0.195685 12.1313,-0.356539 15.29118,-0.357454 l 5.74524,-0.0017 v 3.358757 3.358758 l -5.21491,5.32e-4 c -7.13777,7.3e-4 -19.252714,0.629608 -23.922306,1.241792 -4.185595,0.54873 -6.628948,1.501704 -7.692591,3.000314 -0.989912,1.39473 -1.707509,4.82752 -1.707509,8.16826 v 3.06996 l 12.551145,-0.19226 12.551141,-0.19226 0.003,2.26294 c 0.002,1.24461 0.1034,3.0982 0.22602,4.11909 l 0.22295,1.85615 H 97.983536 85.02959 v 7.77818 7.77817 l 17.4125,0.004 c 9.57688,0.002 18.00913,0.10251 18.73833,0.22304 l 1.32583,0.21914 v 3.13572 3.13573 l -19.53383,0.003 c -10.743599,0.001 -20.63212,0.10621 -21.974486,0.23296 l -2.440666,0.23045 z"
       id="path57"
       transform="matrix(0.26458333,0,0,0.26458333,144.56455,147.56521)" /><path
       style="opacity:0.99;fill:none;fill-opacity:1;stroke:none;stroke-width:0.267253;stroke-linecap:butt;stroke-linejoin:miter;stroke-miterlimit:3;stroke-dasharray:none;stroke-dashoffset:0;stroke-opacity:1"
       d="m 78.80364,125.1257 c 0.257225,-18.05366 0.556581,-23.65179 1.500667,-28.063395 1.209647,-5.652534 3.484983,-6.365716 22.579733,-7.077404 5.25026,-0.195685 12.1313,-0.356539 15.29118,-0.357454 l 5.74524,-0.0017 v 3.358757 3.358758 l -5.21491,5.32e-4 c -7.13777,7.3e-4 -19.252714,0.629608 -23.922306,1.241792 -4.185595,0.54873 -6.628948,1.501704 -7.692591,3.000314 -0.989912,1.39473 -1.707509,4.82752 -1.707509,8.16826 v 3.06996 l 12.551145,-0.19226 12.551141,-0.19226 0.003,2.26294 c 0.002,1.24461 0.1034,3.0982 0.22602,4.11909 l 0.22295,1.85615 H 97.983536 85.02959 v 7.77818 7.77817 l 17.4125,0.004 c 9.57688,0.002 18.00913,0.10251 18.73833,0.22304 l 1.32583,0.21914 v 3.13572 3.13573 l -19.53383,0.003 c -10.743599,0.001 -20.63212,0.10621 -21.974486,0.23296 l -2.440666,0.23045 z"
       id="path58"
       transform="matrix(0.26458333,0,0,0.26458333,144.56455,147.56521)" /><path
       style="opacity:0.99;fill:none;fill-opacity:1;stroke:none;stroke-width:0.267253;stroke-linecap:butt;stroke-linejoin:miter;stroke-miterlimit:3;stroke-dasharray:none;stroke-dashoffset:0;stroke-opacity:1"
       d="m 78.80364,125.1257 c 0.257225,-18.05366 0.556581,-23.65179 1.500667,-28.063395 1.209647,-5.652534 3.484983,-6.365716 22.579733,-7.077404 5.25026,-0.195685 12.1313,-0.356539 15.29118,-0.357454 l 5.74524,-0.0017 v 3.358757 3.358758 l -5.21491,5.32e-4 c -7.13777,7.3e-4 -19.252714,0.629608 -23.922306,1.241792 -4.185595,0.54873 -6.628948,1.501704 -7.692591,3.000314 -0.989912,1.39473 -1.707509,4.82752 -1.707509,8.16826 v 3.06996 l 12.551145,-0.19226 12.551141,-0.19226 0.003,2.26294 c 0.002,1.24461 0.1034,3.0982 0.22602,4.11909 l 0.22295,1.85615 H 97.983536 85.02959 v 7.77818 7.77817 l 17.4125,0.004 c 9.57688,0.002 18.00913,0.10251 18.73833,0.22304 l 1.32583,0.21914 v 3.13572 3.13573 l -19.53383,0.003 c -10.743599,0.001 -20.63212,0.10621 -21.974486,0.23296 l -2.440666,0.23045 z"
       id="path59"
       transform="matrix(0.26458333,0,0,0.26458333,144.56455,147.56521)" /><path
       style="opacity:0.99;fill:none;fill-opacity:1;stroke:none;stroke-width:0.267253;stroke-linecap:butt;stroke-linejoin:miter;stroke-miterlimit:3;stroke-dasharray:none;stroke-dashoffset:0;stroke-opacity:1"
       d="m 63.697483,137.79743 c -0.128481,-7.14619 -0.23384,-24.64709 -0.234126,-38.890869 -2.9e-4,-14.243782 -0.09307,-25.897786 -0.206186,-25.897786 -0.113115,0 -0.868836,0.537033 -1.679378,1.193409 -1.957038,1.584803 -3.176702,2.174215 -6.29208,3.040693 -6.216568,1.729011 -18.248047,2.471338 -40.171306,2.478519 l -14.93763031,0.0049 v -3.70584 -3.705834 L 11.75565,72.530626 c 15.240668,0.28431 32.851562,-0.462098 39.332815,-1.667054 7.494172,-1.393273 9.003643,-3.914179 9.897914,-16.530113 0.336215,-4.743127 1.763118,-46.5397238 1.767396,-51.7701969 l 0.002,-2.38648541 h 3.657205 3.65721 L 70.326447,40.21166 c 0.140965,22.019185 0.323886,40.102465 0.406487,40.185069 0.0826,0.0826 0.429585,-0.08668 0.771072,-0.37617 3.231227,-2.739268 9.193707,-4.137848 20.773429,-4.872691 5.039207,-0.319785 30.283275,-1.063128 36.504385,-1.074915 l 1.85616,-0.0035 v 3.654805 3.654802 l -14.93763,0.237644 c -30.962463,0.492581 -38.695273,1.551396 -41.059113,5.622015 -2.751975,4.739002 -3.22884,12.579179 -3.731024,61.342111 l -0.02276,2.20971 h -3.478181 -3.47818 z"
       id="path60"
       transform="matrix(0.26458333,0,0,0.26458333,144.56455,147.56521)" /><path
       style="opacity:0.99;fill:none;fill-opacity:1;stroke:none;stroke-width:0.267253;stroke-linecap:butt;stroke-linejoin:miter;stroke-miterlimit:3;stroke-dasharray:none;stroke-dashoffset:0;stroke-opacity:1"
       d="m 63.697483,137.79743 c -0.128481,-7.14619 -0.23384,-24.64709 -0.234126,-38.890869 -2.9e-4,-14.243782 -0.09307,-25.897786 -0.206186,-25.897786 -0.113115,0 -0.868836,0.537033 -1.679378,1.193409 -1.957038,1.584803 -3.176702,2.174215 -6.29208,3.040693 -6.216568,1.729011 -18.248047,2.471338 -40.171306,2.478519 l -14.93763031,0.0049 v -3.70584 -3.705834 L 11.75565,72.530626 c 15.240668,0.28431 32.851562,-0.462098 39.332815,-1.667054 7.494172,-1.393273 9.003643,-3.914179 9.897914,-16.530113 0.336215,-4.743127 1.763118,-46.5397238 1.767396,-51.7701969 l 0.002,-2.38648541 h 3.657205 3.65721 L 70.326447,40.21166 c 0.140965,22.019185 0.323886,40.102465 0.406487,40.185069 0.0826,0.0826 0.429585,-0.08668 0.771072,-0.37617 3.231227,-2.739268 9.193707,-4.137848 20.773429,-4.872691 5.039207,-0.319785 30.283275,-1.063128 36.504385,-1.074915 l 1.85616,-0.0035 v 3.654805 3.654802 l -14.93763,0.237644 c -30.962463,0.492581 -38.695273,1.551396 -41.059113,5.622015 -2.751975,4.739002 -3.22884,12.579179 -3.731024,61.342111 l -0.02276,2.20971 h -3.478181 -3.47818 z"
       id="path61"
       transform="matrix(0.26458333,0,0,0.26458333,144.56455,147.56521)" /></g></svg>
